<svg id="Component_9_1" data-name="Component 9 – 1" xmlns="http://www.w3.org/2000/svg" width="510.417" height="735.056" viewBox="0 0 510.417 735.056">
  <path id="Path_32" data-name="Path 32" d="M3767-803.092c180.592,121.291,49.095,195.287,159.957,262.266s283.49,5.65,283.49,5.65l11.971-96.1s-68.979-76.74-149.68-85.694-90.652-14.922-141.426-61.042-12.012-69.421-49.95-117.4S3767-947.454,3767-947.454Z" transform="translate(-3767 1244.575)" fill="#cfd590"/>
  <path id="Path_30" data-name="Path 30" d="M3767-797.449c198.29,126.033,53.906,202.922,175.632,272.519s311.272,5.871,311.272,5.871l13.144-99.854s-75.739-79.74-164.348-89.044-99.536-15.506-155.286-63.429-13.189-72.135-54.845-121.994S3767-947.454,3767-947.454Z" transform="translate(-3756.631 947.454)" fill="#f8f0d7"/>
  <path id="Path_26" data-name="Path 26" d="M3767-803.092c180.592,121.291,49.095,195.287,159.957,262.266s283.49,5.65,283.49,5.65l11.971-96.1s-68.979-76.74-149.68-85.694-90.652-14.922-141.426-61.042-12.012-69.421-49.95-117.4S3767-947.454,3767-947.454Z" transform="translate(-3742 1101.575)" fill="#eff6f9"/>
</svg>
